<?xml version="1.0" encoding="UTF-8" standalone="no"?>
<svg
   xmlns:dc="http://purl.org/dc/elements/1.1/"
   xmlns:cc="http://creativecommons.org/ns#"
   xmlns:rdf="http://www.w3.org/1999/02/22-rdf-syntax-ns#"
   xmlns:svg="http://www.w3.org/2000/svg"
   xmlns="http://www.w3.org/2000/svg"
   xmlns:sodipodi="http://sodipodi.sourceforge.net/DTD/sodipodi-0.dtd"
   xmlns:inkscape="http://www.inkscape.org/namespaces/inkscape"
   inkscape:version="1.0 (4035a4f, 2020-05-01)"
   sodipodi:docname="descriptor-piping_updated.svg"
   version="1.1"
   viewBox="0 0 3629.3 724.1"
   height="255.446mm"
   width="1280.336mm"
   data-name="Layer 1"
   id="Layer_1">
  <metadata
     id="metadata129">
    <rdf:RDF>
      <cc:Work
         rdf:about="">
        <dc:format>image/svg+xml</dc:format>
        <dc:type
           rdf:resource="http://purl.org/dc/dcmitype/StillImage" />
        <dc:title></dc:title>
        <dc:subject>
          <rdf:Bag>
            <rdf:li>redirection</rdf:li>
            <rdf:li>redirect</rdf:li>
            <rdf:li>pipe</rdf:li>
            <rdf:li>stdin</rdf:li>
            <rdf:li>stdout</rdf:li>
            <rdf:li>stderr</rdf:li>
          </rdf:Bag>
        </dc:subject>
      </cc:Work>
    </rdf:RDF>
  </metadata>
  <sodipodi:namedview
     inkscape:current-layer="Layer_1"
     inkscape:window-maximized="0"
     inkscape:window-y="25"
     inkscape:window-x="0"
     inkscape:cy="482.7326"
     inkscape:cx="2419.5327"
     inkscape:zoom="0.22669667"
     showgrid="false"
     id="namedview127"
     inkscape:window-height="480"
     inkscape:window-width="712"
     inkscape:pageshadow="2"
     inkscape:pageopacity="0"
     guidetolerance="10"
     gridtolerance="10"
     objecttolerance="10"
     borderopacity="1"
     bordercolor="#666666"
     pagecolor="#ffffff" />
  <defs
     id="defs12">
    <style
       id="style10">
      .cls-1, .cls-5 {
        fill: #fff;
      }

      .cls-2, .cls-3 {
        fill: none;
      }

      .cls-3 {
        stroke: #4c4c4c;
      }

      .cls-3, .cls-5, .cls-6 {
        stroke-miterlimit: 10;
      }

      .cls-3, .cls-5 {
        stroke-width: 6px;
      }

      .cls-4 {
        fill: #4c4c4c;
      }

      .cls-5 {
        stroke: #0088ce;
      }

      .cls-6 {
        fill: #0088ce;
        stroke: #fff;
      }

      .cls-7 {
        isolation: isolate;
      }
    </style>
  </defs>
  <rect
     id="rect14"
     height="724.1"
     width="3629.3"
     class="cls-1" />
  <rect
     id="rect16"
     height="78"
     width="438"
     y="66.3"
     x="1053.6"
     class="cls-2" />
  <rect
     id="rect18"
     height="78"
     width="438"
     y="66.3"
     x="2121.6"
     class="cls-2" />
  <g
     id="g24">
    <line
       id="line20"
       y2="152.3"
       x2="1483.5"
       y1="152.3"
       x1="1007.6"
       class="cls-3" />
    <polygon
       id="polygon22"
       points="1474.8 182.2 1526.6 152.3 1474.8 122.4 1474.8 182.2"
       class="cls-4" />
  </g>
  <g
     id="g30">
    <line
       id="line26"
       y2="144.3"
       x2="2537.5"
       y1="144.3"
       x1="2027.6"
       class="cls-3" />
    <polygon
       id="polygon28"
       points="2528.8 174.2 2580.6 144.3 2528.8 114.4 2528.8 174.2"
       class="cls-4" />
  </g>
  <path
     id="path32"
     transform="translate(0 0)"
     d="M2031.6,200.3h-467c-52-23-48-94.3,0-112.7l475-2.3C1979.5,80.5,1969.6,188,2031.6,200.3Z"
     class="cls-4" />
  <ellipse
     id="ellipse34"
     ry="55.2"
     rx="41.5"
     cy="142.8"
     cx="2031.1"
     class="cls-3" />
  <path
     id="path36"
     transform="translate(0 0)"
     d="M861.6,673.1H185.7c-38.1,0-68.9-25.4-68.9-56.7V99.3c0-31.3,30.9-56.7,68.9-56.7H861.6c38.1,0,68.9,25.4,68.9,56.7V616.4C930.5,647.7,899.7,673.1,861.6,673.1Z"
     class="cls-5" />
  <circle
     id="circle38"
     r="72"
     cy="261.1"
     cx="116.8"
     class="cls-6" />
  <circle
     id="circle40"
     r="72"
     cy="154.1"
     cx="928.7"
     class="cls-6" />
  <circle
     id="circle42"
     r="72"
     cy="559.2"
     cx="930.5"
     class="cls-6" />
  <path
     id="path44"
     transform="translate(0 0)"
     d="M116.2,288.2c-13.6,0-20.6-11.1-20.6-27s7.2-27.1,20.8-27.1,20.6,11.1,20.6,27S129.8,288.2,116.2,288.2Zm0-46.5c-9.1,0-12.7,8.3-12.7,19.3s3.7,19.5,12.8,19.5c9.2,0,12.7-8.3,12.7-19.3S125.4,241.7,116.2,241.7Z"
     class="cls-1" />
  <path
     id="path46"
     transform="translate(0 0)"
     d="M926.1,173.8V133.6h-9.3v-5.5c5.4-.4,9.8-2.2,10.8-6.8H934v52.5Z"
     class="cls-1" />
  <path
     id="path48"
     transform="translate(0 0)"
     d="M909.9,578.9c.5-15.4,9.8-22.2,20.2-28.3,7.1-4.2,8.9-6.5,8.9-10.2,0-4.2-2.8-6.9-10-6.9a19.416,19.416,0,0,0-12.7,5.2l-5-6a26.894,26.894,0,0,1,17.9-7.1c10.9,0,17.8,4.6,17.8,14.3,0,8.1-4,11.5-13.2,17-10,5.9-12.9,9.3-14.1,14.3h27.8v7.6l-37.6.1Z"
     class="cls-1" />
  <path
     id="path50"
     transform="translate(0 0)"
     d="M3443.6,653.6H2767.7c-38.1,0-68.9-24.6-68.9-54.9V97.6c0-30.4,30.9-54.9,68.9-54.9h675.9c38.1,0,68.9,24.6,68.9,54.9V598.7C3512.5,629,3481.7,653.6,3443.6,653.6Z"
     class="cls-5" />
  <circle
     id="circle52"
     r="72"
     cy="157.1"
     cx="2698.8"
     class="cls-6" />
  <circle
     id="circle54"
     r="72"
     cy="154.1"
     cx="3510.7"
     class="cls-6" />
  <circle
     id="circle56"
     r="72"
     cy="559.2"
     cx="3512.5"
     class="cls-6" />
  <path
     id="path58"
     transform="translate(0 0)"
     d="M2698.2,184.2c-13.6,0-20.6-11.1-20.6-27s7.2-27.1,20.8-27.1,20.6,11.1,20.6,27S2711.8,184.2,2698.2,184.2Zm0-46.5c-9.1,0-12.7,8.3-12.7,19.3s3.7,19.5,12.8,19.5c9.2,0,12.7-8.3,12.7-19.3S2707.4,137.7,2698.2,137.7Z"
     class="cls-1" />
  <path
     id="path60"
     transform="translate(0 0)"
     d="M3491.9,578.9c.5-15.4,9.8-22.2,20.2-28.3,7.1-4.2,8.9-6.5,8.9-10.2,0-4.2-2.8-6.9-10-6.9a19.416,19.416,0,0,0-12.7,5.2l-5-6a26.894,26.894,0,0,1,17.9-7.1c10.9,0,17.8,4.6,17.8,14.3,0,8.1-4,11.5-13.2,17-10,5.9-12.9,9.3-14.1,14.3h27.8v7.6l-37.6.1Z"
     class="cls-1" />
  <path
     id="path62"
     transform="translate(0 0)"
     d="M3511.1,173.8V133.6h-9.3v-5.5c5.4-.4,9.8-2.2,10.8-6.8h6.4v52.5Z"
     class="cls-1" />
  <g
     id="g80">
    <rect
       id="rect64"
       height="78"
       width="544"
       y="318.2"
       x="241.4"
       class="cls-2" />
    <path
       id="path66"
       transform="translate(0 0)"
       d="M363.2,354.8H351.5v18.8H340.9V320.4h23.3c10,0,18.3,5.5,18.3,16.9C382.4,349.7,374.2,354.8,363.2,354.8Zm.6-24.1H351.6v13.7H364c4.9,0,7.6-2.3,7.6-6.9C371.5,332.9,368.5,330.7,363.8,330.7Z"
       class="cls-4" />
    <path
       id="path68"
       transform="translate(0 0)"
       d="M423.4,373.7l-9.5-19.2H403.2v19.2H392.6V320.5h24.8c10,0,18.3,5.5,18.3,16.9,0,8-3.4,13-10.2,15.7l10.2,20.7-12.3-.1Zm-6.3-43H403.2v13.7h13.9c4.9,0,7.6-2.3,7.6-6.9C424.7,332.7,421.8,330.7,417.1,330.7Z"
       class="cls-4" />
    <path
       id="path70"
       transform="translate(0 0)"
       d="M467.1,374.4c-14.5,0-23.1-11.2-23.1-27.4s8.6-27.4,23.1-27.4,23.1,11.2,23.1,27.4S481.6,374.4,467.1,374.4Zm0-44.2c-8.6,0-12.2,7.4-12.2,16.9s3.6,16.9,12.2,16.9,12.2-7.4,12.2-16.9S475.7,330.2,467.1,330.2Z"
       class="cls-4" />
    <path
       id="path72"
       transform="translate(0 0)"
       d="M531.5,335.9a10.145,10.145,0,0,0-9.7-5.8c-8,0-12.5,7-12.5,16.9,0,9.6,4.6,16.9,12.6,16.9,4.8,0,7.6-2.1,10.4-6.8l9,5.3c-3.6,7.5-10,12-19.7,12-13.9,0-23.3-10.6-23.3-27.4,0-16.2,9.7-27.4,23.6-27.4,10,0,16.1,4.9,19.5,11.8Z"
       class="cls-4" />
    <path
       id="path74"
       transform="translate(0 0)"
       d="M552,373.7V320.5h36.9v10.4H562.6v9.2h15.3v10.2H562.6v12.8H590v10.4l-38,.2Z"
       class="cls-4" />
    <path
       id="path76"
       transform="translate(0 0)"
       d="M618.4,374.4c-8.9,0-16.6-3.7-20.7-9.7l7.7-6.8A17.3,17.3,0,0,0,619,364c6.3,0,9.3-1.7,9.3-5.8,0-3.4-1.8-4.9-11.9-7.2-9.8-2.3-16.6-5.4-16.6-15.9,0-9.7,8.5-15.6,19-15.6a25.26,25.26,0,0,1,19.4,8.4l-7.7,7.4c-3.4-3.5-7.2-5.5-12.1-5.5-5.7,0-7.6,2.4-7.6,4.8,0,3.3,2.3,4.4,10.7,6.4s17.8,4.9,17.8,16.4C639.3,367.7,632.9,374.4,618.4,374.4Z"
       class="cls-4" />
    <path
       id="path78"
       transform="translate(0 0)"
       d="M667.5,374.4c-8.9,0-16.6-3.7-20.7-9.7l7.7-6.8a17.3,17.3,0,0,0,13.6,6.1c6.3,0,9.3-1.7,9.3-5.8,0-3.4-1.8-4.9-11.9-7.2-9.8-2.3-16.6-5.4-16.6-15.9,0-9.7,8.5-15.6,19-15.6a25.26,25.26,0,0,1,19.4,8.4l-7.7,7.4c-3.4-3.5-7.2-5.5-12.1-5.5-5.7,0-7.6,2.4-7.6,4.8,0,3.3,2.3,4.4,10.7,6.4s17.8,4.9,17.8,16.4C688.4,367.7,682,374.4,667.5,374.4Z"
       class="cls-4" />
  </g>
  <g
     id="g98">
    <rect
       id="rect82"
       height="78"
       width="544"
       y="318.2"
       x="2823.4"
       class="cls-2" />
    <path
       id="path84"
       transform="translate(0 0)"
       d="M2945.2,354.8h-11.7v18.8h-10.6V320.4h23.3c10,0,18.3,5.5,18.3,16.9C2964.4,349.7,2956.2,354.8,2945.2,354.8Zm.6-24.1h-12.2v13.7H2946c4.9,0,7.6-2.3,7.6-6.9C2953.5,332.9,2950.5,330.7,2945.8,330.7Z"
       class="cls-4" />
    <path
       id="path86"
       transform="translate(0 0)"
       d="M3005.4,373.7l-9.5-19.2h-10.7v19.2h-10.6V320.5h24.8c10,0,18.3,5.5,18.3,16.9,0,8-3.4,13-10.2,15.7l10.2,20.7-12.3-.1Zm-6.3-43h-13.9v13.7h13.9c4.9,0,7.6-2.3,7.6-6.9C3006.7,332.7,3003.8,330.7,2999.1,330.7Z"
       class="cls-4" />
    <path
       id="path88"
       transform="translate(0 0)"
       d="M3049.1,374.4c-14.5,0-23.1-11.2-23.1-27.4s8.6-27.4,23.1-27.4,23.1,11.2,23.1,27.4S3063.6,374.4,3049.1,374.4Zm0-44.2c-8.6,0-12.2,7.4-12.2,16.9s3.6,16.9,12.2,16.9,12.2-7.4,12.2-16.9S3057.7,330.2,3049.1,330.2Z"
       class="cls-4" />
    <path
       id="path90"
       transform="translate(0 0)"
       d="M3113.5,335.9a10.145,10.145,0,0,0-9.7-5.8c-8,0-12.5,7-12.5,16.9,0,9.6,4.6,16.9,12.6,16.9,4.8,0,7.6-2.1,10.4-6.8l9,5.3c-3.6,7.5-10,12-19.7,12-13.9,0-23.3-10.6-23.3-27.4,0-16.2,9.7-27.4,23.6-27.4,10,0,16.1,4.9,19.5,11.8Z"
       class="cls-4" />
    <path
       id="path92"
       transform="translate(0 0)"
       d="M3134,373.7V320.5h36.9v10.4h-26.3v9.2h15.3v10.2h-15.3v12.8H3172v10.4l-38,.2Z"
       class="cls-4" />
    <path
       id="path94"
       transform="translate(0 0)"
       d="M3200.4,374.4c-8.9,0-16.6-3.7-20.7-9.7l7.7-6.8A17.3,17.3,0,0,0,3201,364c6.3,0,9.3-1.7,9.3-5.8,0-3.4-1.8-4.9-11.9-7.2-9.8-2.3-16.6-5.4-16.6-15.9,0-9.7,8.5-15.6,19-15.6a25.26,25.26,0,0,1,19.4,8.4l-7.7,7.4c-3.4-3.5-7.2-5.5-12.1-5.5-5.7,0-7.6,2.4-7.6,4.8,0,3.3,2.3,4.4,10.7,6.4s17.8,4.9,17.8,16.4C3221.3,367.7,3214.9,374.4,3200.4,374.4Z"
       class="cls-4" />
    <path
       id="path96"
       transform="translate(0 0)"
       d="M3249.5,374.4c-8.9,0-16.6-3.7-20.7-9.7l7.7-6.8a17.3,17.3,0,0,0,13.6,6.1c6.3,0,9.3-1.7,9.3-5.8,0-3.4-1.8-4.9-11.9-7.2-9.8-2.3-16.6-5.4-16.6-15.9,0-9.7,8.5-15.6,19-15.6a25.26,25.26,0,0,1,19.4,8.4l-7.7,7.4c-3.4-3.5-7.2-5.5-12.1-5.5-5.7,0-7.6,2.4-7.6,4.8,0,3.3,2.3,4.4,10.7,6.4s17.8,4.9,17.8,16.4C3270.4,367.7,3264,374.4,3249.5,374.4Z"
       class="cls-4" />
  </g>
  <g
     id="g112"
     class="cls-7">
    <path
       id="path100"
       transform="translate(0 0)"
       d="M1085,125.1a27.225,27.225,0,0,1-15.3-5.1l3.6-5.9a20.826,20.826,0,0,0,11.6,4c4.9,0,7.3-1.6,7.3-4.4,0-3-3.5-4.5-9.3-6.7-8.6-3.3-11.7-6.2-11.7-12.5,0-7.1,5.6-10.9,13.6-10.9a23.41,23.41,0,0,1,13.5,4.4l-3.4,6a17.188,17.188,0,0,0-10.3-3.4c-3.8,0-5.5,1.5-5.5,3.6,0,2,1.4,3.4,7.4,5.8,8.9,3.4,13.5,5.9,13.5,13.4C1099.9,122.1,1092.8,125.1,1085,125.1Z"
       class="cls-4" />
    <path
       id="path102"
       transform="translate(0 0)"
       d="M1128.3,123.2a15.643,15.643,0,0,1-7.7,1.8c-5.5,0-9-3.4-9-10.6v-23h-5.7V84.3h5.7V72.9l7.7-4.1V84.3h9.9v7.1h-9.9v21.7c0,3.7,1.2,4.8,4.1,4.8a13.113,13.113,0,0,0,5.8-1.6Z"
       class="cls-4" />
    <path
       id="path104"
       transform="translate(0 0)"
       d="M1162,124.2v-3.8c-2.9,2.7-6.2,4.6-10.4,4.6-8.6,0-15.4-6.2-15.4-21.4,0-13.7,7.4-20.1,15.7-20.1a13.9,13.9,0,0,1,10,4.6V72.8l7.8-4v55.4Zm0-28.3c-1.7-2.4-5.4-5.2-9.3-5.2-5.6,0-8.7,4.3-8.7,12.7,0,10,3.2,14.4,9,14.4,3.7,0,7-2.5,9-5.1Z"
       class="cls-4" />
    <path
       id="path106"
       transform="translate(0 0)"
       d="M1196.9,125.1c-10,0-17.6-8.3-17.6-20.7,0-13.1,7.8-20.8,17.8-20.8,10.2,0,17.8,8.1,17.8,20.6C1214.9,117.3,1207.2,125.1,1196.9,125.1Zm0-34.2c-5.9,0-9.6,5.2-9.6,13.1,0,8.7,4,13.5,10,13.5,5.9,0,9.8-6,9.8-13.3C1207,96.2,1203.2,90.9,1196.9,90.9Z"
       class="cls-4" />
    <path
       id="path108"
       transform="translate(0 0)"
       d="M1248.5,124.2v-3.8c-2,2.9-5.9,4.6-10,4.6-9.3,0-14.2-6.1-14.2-17.9V84.3h7.8v22.6c0,8.1,3,10.9,8.2,10.9s8.2-3.7,8.2-10.2V84.3h7.8v39.9Z"
       class="cls-4" />
    <path
       id="path110"
       transform="translate(0 0)"
       d="M1287,123.2a15.643,15.643,0,0,1-7.7,1.8c-5.5,0-9-3.4-9-10.6v-23h-5.7V84.3h5.7V72.9l7.7-4.1V84.3h9.9v7.1H1278v21.7c0,3.7,1.2,4.8,4.1,4.8a13.113,13.113,0,0,0,5.8-1.6Z"
       class="cls-4" />
  </g>
  <g
     id="g124"
     class="cls-7">
    <path
       id="path114"
       transform="translate(0 0)"
       d="M2153,125.1a27.225,27.225,0,0,1-15.3-5.1l3.6-5.9a20.826,20.826,0,0,0,11.6,4c4.9,0,7.3-1.6,7.3-4.4,0-3-3.5-4.5-9.3-6.7-8.6-3.3-11.7-6.2-11.7-12.5,0-7.1,5.6-10.9,13.6-10.9a23.41,23.41,0,0,1,13.5,4.4l-3.4,6a17.188,17.188,0,0,0-10.3-3.4c-3.8,0-5.5,1.5-5.5,3.6,0,2,1.4,3.4,7.4,5.8,8.9,3.4,13.5,5.9,13.5,13.4C2167.9,122.1,2160.8,125.1,2153,125.1Z"
       class="cls-4" />
    <path
       id="path116"
       transform="translate(0 0)"
       d="M2196.3,123.2a15.643,15.643,0,0,1-7.7,1.8c-5.5,0-9-3.4-9-10.6v-23h-5.7V84.3h5.7V72.9l7.7-4.1V84.3h9.9v7.1h-9.9v21.7c0,3.7,1.2,4.8,4.1,4.8a13.113,13.113,0,0,0,5.8-1.6Z"
       class="cls-4" />
    <path
       id="path118"
       transform="translate(0 0)"
       d="M2230,124.2v-3.8c-2.9,2.7-6.2,4.6-10.4,4.6-8.6,0-15.4-6.2-15.4-21.4,0-13.7,7.4-20.1,15.7-20.1a13.9,13.9,0,0,1,10,4.6V72.8l7.8-4v55.4Zm0-28.3c-1.7-2.4-5.4-5.2-9.3-5.2-5.6,0-8.7,4.3-8.7,12.7,0,10,3.2,14.4,9,14.4,3.7,0,7-2.5,9-5.1Z"
       class="cls-4" />
    <path
       id="path120"
       transform="translate(0 0)"
       d="M2253.6,79.1a5.05,5.05,0,1,1,5-5A5.015,5.015,0,0,1,2253.6,79.1Zm-3.9,45.1V84.3h7.8v39.9Z"
       class="cls-4" />
    <path
       id="path122"
       transform="translate(0 0)"
       d="M2293.7,124.2V101.6c0-8.1-3-10.9-8.2-10.9s-8.2,3.7-8.2,10.2v23.3h-7.8V84.3h7.8v3.8c2-2.9,5.9-4.6,10-4.6,9.3,0,14.2,6.1,14.2,17.9v22.9h-7.8Z"
       class="cls-4" />
  </g>
</svg>
